# xmcd
#
# Track frame offsets: 
#        150
#        16748
#        31378
#        51277
#        69499
#        85125
#        103045
#        115278
#        130132
#        146062
#        161516
#
# Disc length: 2530 seconds
#
# Revision: 0
# Processed by: cddbd v1.5.2PL0 Copyright (c) Steve Scherf et al.
# Submitted via: ExactAudioCopy v1.3
#
DISCID=9009e00b
DTITLE=Alexis P. Suter Band - All For Loving You
DYEAR=2016
DGENRE=Blues Rock
TTITLE0=Talk To Myself
TTITLE1=Can't Find A Reason
TTITLE2=Another Place And Time
TTITLE3=All For Loving You
TTITLE4=Livin' In A World
TTITLE5=Fool For You
TTITLE6=Don't Ya' Tell
TTITLE7=So Long
TTITLE8=Circumstance
TTITLE9=Every Shut Eye
TTITLE10=Let It Be
EXTD=
EXTT0=
EXTT1=
EXTT2=
EXTT3=
EXTT4=
EXTT5=
EXTT6=
EXTT7=
EXTT8=
EXTT9=
EXTT10=
PLAYORDER=
